<svg width="100%" height="100%" id="svg" viewBox="0 0 1440 600" xmlns="http://www.w3.org/2000/svg" class="transition duration-300 ease-in-out delay-150"><defs><linearGradient id="gradient" x1="0%" y1="50%" x2="100%" y2="50%"><stop offset="5%" stop-color="#8ed1fc88"></stop><stop offset="95%" stop-color="#00d08488"></stop></linearGradient></defs><path d="M 0,600 C 0,600 0,200 0,200 C 30.089715962059664,235.65730466337212 60.17943192411933,271.31460932674423 85,268 C 109.82056807588067,264.68539067325577 129.37198826558236,222.39886735639521 152,220 C 174.62801173441764,217.60113264360479 200.3326150135512,255.08992124767497 219,267 C 237.6673849864488,278.91007875232503 249.29755168021285,265.241447652905 274,247 C 298.70244831978715,228.75855234709502 336.4771782655976,205.94428814070525 362,193 C 387.5228217344024,180.05571185929475 400.7937352573967,176.9813997842741 422,188 C 443.2062647426033,199.0186002157259 472.347880704816,224.13011272219842 500,232 C 527.652119295184,239.86988727780158 553.8147419233394,230.4981493269323 580,211 C 606.1852580766606,191.5018506730677 632.3931516018266,161.8772899700724 655,183 C 677.6068483981734,204.1227100299276 696.6126516693542,275.99269079277803 716,267 C 735.3873483306458,258.00730920722197 755.1562417207565,168.15194685881545 783,126 C 810.8437582792435,83.84805314118454 846.7623814476195,89.39952177196011 874,127 C 901.2376185523805,164.6004782280399 919.7942324887657,234.24996605334414 940,241 C 960.2057675112343,247.75003394665586 982.060688597318,191.60061401466322 1008,193 C 1033.939311402682,194.39938598533678 1063.9630131219621,253.34757788800292 1088,243 C 1112.0369868780379,232.65242211199708 1130.0872589148335,153.00907443332517 1152,146 C 1173.9127410851665,138.99092556667483 1199.6879512187045,204.61612437869633 1226,219 C 1252.3120487812955,233.38387562130367 1279.1609362103486,196.52642805188944 1303,171 C 1326.8390637896514,145.47357194811056 1347.6683039399004,131.27816341374586 1370,138 C 1392.3316960600996,144.72183658625414 1416.1658480300498,172.36091829312707 1440,200 C 1440,200 1440,600 1440,600 Z" stroke="none" stroke-width="0" fill="url(#gradient)" class="transition-all duration-300 ease-in-out delay-150 path-0"></path><defs><linearGradient id="gradient" x1="0%" y1="50%" x2="100%" y2="50%"><stop offset="5%" stop-color="#8ed1fcff"></stop><stop offset="95%" stop-color="#00d084ff"></stop></linearGradient></defs><path d="M 0,600 C 0,600 0,400 0,400 C 24.050617433462683,405.87602449029384 48.10123486692537,411.75204898058774 70,416 C 91.89876513307463,420.24795101941226 111.6456779657612,422.8678285679431 134,438 C 156.3543220342388,453.1321714320569 181.31605327002993,480.7766367476401 209,473 C 236.68394672997007,465.2233632523599 267.0901089541192,422.02562444149646 293,386 C 318.9098910458808,349.97437555850354 340.3235109134932,321.1208654863739 363,346 C 385.6764890865068,370.8791345136261 409.61584739190806,449.49091361300793 436,441 C 462.38415260809194,432.50908638699207 491.21309951887474,336.91548006159434 512,336 C 532.7869004811253,335.08451993840566 545.5317545325931,428.84716614061483 568,443 C 590.4682454674069,457.15283385938517 622.659882350753,391.6958553759462 649,378 C 675.340117649247,364.3041446240538 695.828716064395,402.36941235560016 720,427 C 744.171283935605,451.63058764439984 772.0252533916669,462.82649520165296 797,452 C 821.9747466083331,441.17350479834704 844.0702703689375,408.324606837788 865,411 C 885.9297296310625,413.675393162212 905.6936651325831,451.8750774471952 928,443 C 950.3063348674169,434.1249225528048 975.1550691007299,378.17508337343105 1000,385 C 1024.8449308992701,391.82491662656895 1049.6860584644971,461.42458905908063 1076,474 C 1102.3139415355029,486.57541094091937 1130.1006970412811,442.1265603902463 1154,429 C 1177.8993029587189,415.8734396097537 1197.9111533703783,434.06916937993395 1222,421 C 1246.0888466296217,407.93083062006605 1274.2546894772056,363.5967620900178 1298,345 C 1321.7453105227944,326.4032379099822 1341.0700887207984,333.5437822599949 1364,347 C 1386.9299112792016,360.4562177400051 1413.4649556396007,380.22810887000253 1440,400 C 1440,400 1440,600 1440,600 Z" stroke="none" stroke-width="0" fill="url(#gradient)" class="transition-all duration-300 ease-in-out delay-150 path-1"></path></svg>